<svg width="40" height="40" viewBox="0 0 40 40" fill="none" xmlns="http://www.w3.org/2000/svg">
<path d="M20.036 0.149963C9.01217 0.149963 0.072998 9.23988 0.072998 20.4538C0.072998 29.4247 5.793 37.0355 13.7249 39.7203C14.7226 39.9082 15.0889 39.2798 15.0889 38.7435C15.0889 38.2594 15.0704 36.6599 15.0618 34.9633C9.50804 36.1916 8.33614 32.5677 8.33614 32.5677C7.42804 30.2208 6.11961 29.5968 6.11961 29.5968C4.30837 28.3366 6.25614 28.3625 6.25614 28.3625C8.26077 28.5054 9.3163 30.4549 9.3163 30.4549C11.0968 33.5589 13.9864 32.6615 15.1256 32.1427C15.3047 30.8308 15.8221 29.9344 16.393 29.4277C11.9589 28.9143 7.29779 27.1733 7.29779 19.3933C7.29779 17.1765 8.07763 15.3653 9.35465 13.9434C9.14738 13.4316 8.46407 11.3669 9.54804 8.57012C9.54804 8.57012 11.2244 8.02442 15.0393 10.6514C16.6317 10.2015 18.3394 9.97589 20.036 9.96815C21.7325 9.97589 23.4416 10.2015 25.037 10.6514C28.8472 8.02442 30.5213 8.57012 30.5213 8.57012C31.6079 11.3669 30.9242 13.4316 30.717 13.9434C31.997 15.3653 32.7715 17.1765 32.7715 19.3933C32.7715 27.1918 28.1014 28.9089 23.6561 29.4115C24.3722 30.0416 25.0102 31.2773 25.0102 33.1716C25.0102 35.888 24.987 38.0744 24.987 38.7435C24.987 39.2839 25.3464 39.917 26.3583 39.7176C34.2859 37.0298 39.9986 29.4216 39.9986 20.4538C39.9986 9.23988 31.0608 0.149963 20.036 0.149963Z" fill="#005FF1"/>
</svg>
