<svg width="0" height="0" class="hidden">
  <symbol xmlns="http://www.w3.org/2000/svg" viewBox="0 0 40 40" id="github">
    <path d="M20.036 0.149963C9.01217 0.149963 0.072998 9.23988 0.072998 20.4538C0.072998 29.4247 5.793 37.0355 13.7249 39.7203C14.7226 39.9082 15.0889 39.2798 15.0889 38.7435C15.0889 38.2594 15.0704 36.6599 15.0618 34.9633C9.50804 36.1916 8.33614 32.5677 8.33614 32.5677C7.42804 30.2208 6.11961 29.5968 6.11961 29.5968C4.30837 28.3366 6.25614 28.3625 6.25614 28.3625C8.26077 28.5054 9.3163 30.4549 9.3163 30.4549C11.0968 33.5589 13.9864 32.6615 15.1256 32.1427C15.3047 30.8308 15.8221 29.9344 16.393 29.4277C11.9589 28.9143 7.29779 27.1733 7.29779 19.3933C7.29779 17.1765 8.07763 15.3653 9.35465 13.9434C9.14738 13.4316 8.46407 11.3669 9.54804 8.57012C9.54804 8.57012 11.2244 8.02442 15.0393 10.6514C16.6317 10.2015 18.3394 9.97589 20.036 9.96815C21.7325 9.97589 23.4416 10.2015 25.037 10.6514C28.8472 8.02442 30.5213 8.57012 30.5213 8.57012C31.6079 11.3669 30.9242 13.4316 30.717 13.9434C31.997 15.3653 32.7715 17.1765 32.7715 19.3933C32.7715 27.1918 28.1014 28.9089 23.6561 29.4115C24.3722 30.0416 25.0102 31.2773 25.0102 33.1716C25.0102 35.888 24.987 38.0744 24.987 38.7435C24.987 39.2839 25.3464 39.917 26.3583 39.7176C34.2859 37.0298 39.9986 29.4216 39.9986 20.4538C39.9986 9.23988 31.0608 0.149963 20.036 0.149963Z" fill="#005FF1"></path>
  </symbol>
  <symbol xmlns="http://www.w3.org/2000/svg" viewBox="0 0 40 40" id="linked">
    <path fill-rule="evenodd" clip-rule="evenodd" d="M20 0C8.9543 0 0 8.9543 0 20C0 31.0457 8.9543 40 20 40C31.0457 40 40 31.0457 40 20C40 8.9543 31.0457 0 20 0ZM9.60132 16.5649H14.1338V30.183H9.60132V16.5649ZM14.4322 12.3522C14.4028 11.017 13.448 10 11.8974 10C10.3469 10 9.33325 11.017 9.33325 12.3522C9.33325 13.6598 10.317 14.7061 11.8386 14.7061H11.8676C13.448 14.7061 14.4322 13.6598 14.4322 12.3522ZM25.2609 16.2451C28.2435 16.2451 30.4795 18.1919 30.4795 22.3748L30.4793 30.183H25.947V22.8973C25.947 21.0673 25.2912 19.8185 23.6504 19.8185C22.3982 19.8185 21.6524 20.6604 21.3248 21.4735C21.205 21.7649 21.1756 22.1709 21.1756 22.5779V30.1833H16.6426C16.6426 30.1833 16.7023 17.8431 16.6426 16.5652H21.1756V18.4941C21.7771 17.5669 22.8545 16.2451 25.2609 16.2451Z" fill="#005FF1"></path>
  </symbol>
  <symbol xmlns="http://www.w3.org/2000/svg" viewBox="0 0 228 31" id="logo">
    <path d="M12.0682 30H0.875V0.90909H11.9545C14.947 0.90909 17.5322 1.49148 19.7102 2.65625C21.8977 3.81155 23.5833 5.47822 24.767 7.65625C25.9602 9.82481 26.5568 12.4242 26.5568 15.4545C26.5568 18.4848 25.965 21.089 24.7812 23.267C23.5975 25.4356 21.9214 27.1023 19.7528 28.267C17.5843 29.4223 15.0227 30 12.0682 30ZM8.77273 23.2955H11.7841C13.2235 23.2955 14.4498 23.0634 15.4631 22.5994C16.4858 22.1354 17.2623 21.3352 17.7926 20.1989C18.3324 19.0625 18.6023 17.4811 18.6023 15.4545C18.6023 13.428 18.3277 11.8466 17.7784 10.7102C17.2386 9.57386 16.4432 8.77367 15.392 8.30966C14.3504 7.84564 13.072 7.61364 11.5568 7.61364H8.77273V23.2955ZM30.2109 30V0.90909H51.1768V7.27273H38.1087V12.2727H50.0973V18.6364H38.1087V23.6364H51.12V30H30.2109ZM80.2642 0.90909V30H73.6733L63.1619 14.7159H62.9915V30H55.0938V0.90909H61.7983L72.1392 16.1364H72.3665V0.90909H80.2642Z" fill="black"></path>
    <path d="M84 30V0.90909H96.5568C98.7159 0.90909 100.605 1.33523 102.224 2.1875C103.844 3.03977 105.103 4.23769 106.003 5.78125C106.902 7.32481 107.352 9.12879 107.352 11.1932C107.352 13.2765 106.888 15.0805 105.96 16.6051C105.042 18.1297 103.749 19.304 102.082 20.1278C100.425 20.9517 98.4886 21.3636 96.2727 21.3636H88.7727V15.2273H94.6818C95.6098 15.2273 96.4006 15.0663 97.054 14.7443C97.7169 14.4129 98.2235 13.9441 98.5739 13.3381C98.9337 12.732 99.1136 12.017 99.1136 11.1932C99.1136 10.3598 98.9337 9.64962 98.5739 9.0625C98.2235 8.46591 97.7169 8.01136 97.054 7.69886C96.4006 7.37689 95.6098 7.21591 94.6818 7.21591H91.8977V30H84ZM138.432 15.4545C138.432 18.6932 137.802 21.4252 136.543 23.6506C135.283 25.8665 133.583 27.5473 131.443 28.6932C129.303 29.8295 126.917 30.3977 124.284 30.3977C121.633 30.3977 119.237 29.8248 117.097 28.679C114.966 27.5237 113.271 25.8381 112.011 23.6222C110.761 21.3968 110.136 18.6742 110.136 15.4545C110.136 12.2159 110.761 9.48864 112.011 7.27273C113.271 5.04735 114.966 3.36648 117.097 2.23011C119.237 1.08428 121.633 0.511363 124.284 0.511363C126.917 0.511363 129.303 1.08428 131.443 2.23011C133.583 3.36648 135.283 5.04735 136.543 7.27273C137.802 9.48864 138.432 12.2159 138.432 15.4545ZM130.307 15.4545C130.307 13.7121 130.075 12.2443 129.611 11.0511C129.156 9.84848 128.479 8.93939 127.58 8.32386C126.689 7.69886 125.591 7.38636 124.284 7.38636C122.977 7.38636 121.874 7.69886 120.974 8.32386C120.084 8.93939 119.407 9.84848 118.943 11.0511C118.489 12.2443 118.261 13.7121 118.261 15.4545C118.261 17.197 118.489 18.6695 118.943 19.8722C119.407 21.0653 120.084 21.9744 120.974 22.5994C121.874 23.215 122.977 23.5227 124.284 23.5227C125.591 23.5227 126.689 23.215 127.58 22.5994C128.479 21.9744 129.156 21.0653 129.611 19.8722C130.075 18.6695 130.307 17.197 130.307 15.4545ZM142.086 30V0.90909H154.643C156.802 0.90909 158.691 1.33523 160.31 2.1875C161.93 3.03977 163.189 4.23769 164.089 5.78125C164.988 7.32481 165.438 9.12879 165.438 11.1932C165.438 13.2765 164.974 15.0805 164.046 16.6051C163.128 18.1297 161.835 19.304 160.168 20.1278C158.511 20.9517 156.575 21.3636 154.359 21.3636H146.859V15.2273H152.768C153.696 15.2273 154.487 15.0663 155.14 14.7443C155.803 14.4129 156.309 13.9441 156.66 13.3381C157.02 12.732 157.2 12.017 157.2 11.1932C157.2 10.3598 157.02 9.64962 156.66 9.0625C156.309 8.46591 155.803 8.01136 155.14 7.69886C154.487 7.37689 153.696 7.21591 152.768 7.21591H149.984V30H142.086ZM196.518 15.4545C196.518 18.6932 195.888 21.4252 194.629 23.6506C193.369 25.8665 191.669 27.5473 189.529 28.6932C187.389 29.8295 185.003 30.3977 182.37 30.3977C179.719 30.3977 177.323 29.8248 175.183 28.679C173.052 27.5237 171.357 25.8381 170.097 23.6222C168.847 21.3968 168.222 18.6742 168.222 15.4545C168.222 12.2159 168.847 9.48864 170.097 7.27273C171.357 5.04735 173.052 3.36648 175.183 2.23011C177.323 1.08428 179.719 0.511363 182.37 0.511363C185.003 0.511363 187.389 1.08428 189.529 2.23011C191.669 3.36648 193.369 5.04735 194.629 7.27273C195.888 9.48864 196.518 12.2159 196.518 15.4545ZM188.393 15.4545C188.393 13.7121 188.161 12.2443 187.697 11.0511C187.242 9.84848 186.565 8.93939 185.665 8.32386C184.775 7.69886 183.677 7.38636 182.37 7.38636C181.063 7.38636 179.96 7.69886 179.06 8.32386C178.17 8.93939 177.493 9.84848 177.029 11.0511C176.575 12.2443 176.347 13.7121 176.347 15.4545C176.347 17.197 176.575 18.6695 177.029 19.8722C177.493 21.0653 178.17 21.9744 179.06 22.5994C179.96 23.215 181.063 23.5227 182.37 23.5227C183.677 23.5227 184.775 23.215 185.665 22.5994C186.565 21.9744 187.242 21.0653 187.697 19.8722C188.161 18.6695 188.393 17.197 188.393 15.4545ZM206.29 0.90909L212.256 21.4205H212.484L218.45 0.90909H227.37L217.768 30H206.972L197.37 0.90909H206.29Z" fill="#005FF1"></path>
  </symbol>
  <symbol xmlns="http://www.w3.org/2000/svg" viewBox="0 0 25 25" id="shuriken">
    <path d="M12.5 12.5C12.5 9.03409 15.2841 6.25 18.75 6.25C22.2159 6.25 25 9.03409 25 12.5H12.5ZM12.5 12.5C12.5 15.9659 9.71591 18.75 6.25 18.75C2.78409 18.75 0 15.9659 0 12.5H12.5ZM12.5 12.5C9.03409 12.5 6.25 9.71591 6.25 6.25C6.25 2.78409 9.03409 0 12.5 0V12.5ZM12.5 12.5C15.9659 12.5 18.75 15.2841 18.75 18.75C18.75 22.2159 15.9659 25 12.5 25V12.5Z" fill="#005FF1"></path>
  </symbol>
  <symbol xmlns="http://www.w3.org/2000/svg" viewBox="0 0 40 40" id="telegram">
    <path fill-rule="evenodd" clip-rule="evenodd" d="M40 20C40 31.0457 31.0457 40 20 40C8.95431 40 0 31.0457 0 20C0 8.95431 8.95431 0 20 0C31.0457 0 40 8.95431 40 20ZM13.3929 18.1679C11.3894 19.0427 9.33089 19.9415 7.44854 20.9783L7.44841 20.9785C6.46551 21.6981 7.77199 22.2071 8.99755 22.6846C9.19239 22.7605 9.38518 22.8356 9.56641 22.9106C9.71721 22.957 9.87058 23.0058 10.026 23.0553C11.389 23.4896 12.9089 23.9738 14.2322 23.2454C16.4061 21.9967 18.4575 20.553 20.5074 19.1104C21.179 18.6377 21.8504 18.1652 22.5259 17.6997C22.5575 17.6795 22.5933 17.6563 22.6323 17.631C23.2078 17.258 24.502 16.4191 24.0233 17.5751C22.8912 18.8131 21.6787 19.909 20.4595 21.0108C19.6379 21.7534 18.8133 22.4987 18.0083 23.292C17.3071 23.8617 16.5791 25.0073 17.3642 25.805C19.1725 27.071 21.009 28.3062 22.8445 29.5407C23.4417 29.9424 24.0388 30.344 24.6349 30.7466C25.645 31.5531 27.2238 30.9007 27.4459 29.6404C27.5446 29.0606 27.6438 28.4808 27.743 27.901C28.2909 24.6972 28.8391 21.4922 29.3234 18.2779C29.3892 17.7737 29.4638 17.2695 29.5384 16.7651C29.7193 15.5425 29.9005 14.3184 29.957 13.0892C29.8112 11.8626 28.3239 12.1323 27.4962 12.4081C23.2419 14.027 19.03 15.7658 14.8349 17.5353C14.3596 17.7458 13.8779 17.9562 13.3929 18.1679Z" fill="#005FF1"></path>
  </symbol>
</svg>